<svg width="15" height="17" viewBox="0 0 15 17" fill="none" xmlns="http://www.w3.org/2000/svg">
<path d="M14.9106 11.7892C14.8961 11.746 14.8816 11.7028 14.8599 11.6597L13.5347 9.06901C13.3827 8.76676 13.2958 8.42854 13.2958 8.09031V6.1905C13.2958 4.449 12.5427 2.77946 11.2321 1.62086C9.98662 0.512636 8.40806 0.00170025 6.77882 0.188803C3.7448 0.534225 1.70282 3.11769 1.70282 6.62227V8.09031C1.70282 8.42854 1.62317 8.76676 1.46386 9.06901L0.138745 11.6525C0.117021 11.6956 0.102539 11.7388 0.0880573 11.782C-0.100211 12.4369 0.0301285 13.1277 0.44287 13.6746C0.855612 14.2215 1.49283 14.531 2.18073 14.531H4.19375C4.7658 15.8191 6.06195 16.6899 7.50292 16.6899C8.9439 16.6899 10.2473 15.8191 10.8121 14.531H12.8251C13.513 14.531 14.143 14.2215 14.563 13.6746C14.9757 13.1277 15.1061 12.4369 14.9178 11.782L14.9106 11.7892ZM7.50292 15.2578C6.87295 15.2578 6.29366 14.9843 5.8954 14.5382H9.11769C8.71218 14.9843 8.1329 15.2578 7.50292 15.2578ZM13.4044 12.8111C13.2668 12.991 13.0568 13.0989 12.8251 13.0989H2.18073C1.94901 13.0989 1.73902 12.9982 1.60144 12.8111C1.47834 12.6456 1.42766 12.4369 1.4711 12.2354L2.76002 9.72387C3.02069 9.22013 3.15828 8.65162 3.15828 8.09031V6.62227C3.15828 3.84451 4.6427 1.87993 6.94536 1.61367C8.15462 1.47694 9.33492 1.85834 10.269 2.68591C11.2683 3.57105 11.8476 4.85199 11.8476 6.1833V8.08312C11.8476 8.65162 11.9852 9.22013 12.2458 9.71667L13.5347 12.2282C13.5782 12.4297 13.5347 12.6384 13.4044 12.8039V12.8111Z" fill="#335F32"/>
<path d="M14.9106 11.7892C14.8961 11.746 14.8816 11.7028 14.8599 11.6597L13.5347 9.06901C13.3827 8.76676 13.2958 8.42854 13.2958 8.09031V6.1905C13.2958 4.449 12.5427 2.77946 11.2321 1.62086C9.98662 0.512636 8.40806 0.00170025 6.77882 0.188803C3.7448 0.534225 1.70282 3.11769 1.70282 6.62227V8.09031C1.70282 8.42854 1.62317 8.76676 1.46386 9.06901L0.138745 11.6525C0.117021 11.6956 0.102539 11.7388 0.0880573 11.782C-0.100211 12.4369 0.0301285 13.1277 0.44287 13.6746C0.855612 14.2215 1.49283 14.531 2.18073 14.531H4.19375C4.7658 15.8191 6.06195 16.6899 7.50292 16.6899C8.9439 16.6899 10.2473 15.8191 10.8121 14.531H12.8251C13.513 14.531 14.143 14.2215 14.563 13.6746C14.9757 13.1277 15.1061 12.4369 14.9178 11.782L14.9106 11.7892ZM7.50292 15.2578C6.87295 15.2578 6.29366 14.9843 5.8954 14.5382H9.11769C8.71218 14.9843 8.1329 15.2578 7.50292 15.2578ZM13.4044 12.8111C13.2668 12.991 13.0568 13.0989 12.8251 13.0989H2.18073C1.94901 13.0989 1.73902 12.9982 1.60144 12.8111C1.47834 12.6456 1.42766 12.4369 1.4711 12.2354L2.76002 9.72387C3.02069 9.22013 3.15828 8.65162 3.15828 8.09031V6.62227C3.15828 3.84451 4.6427 1.87993 6.94536 1.61367C8.15462 1.47694 9.33492 1.85834 10.269 2.68591C11.2683 3.57105 11.8476 4.85199 11.8476 6.1833V8.08312C11.8476 8.65162 11.9852 9.22013 12.2458 9.71667L13.5347 12.2282C13.5782 12.4297 13.5347 12.6384 13.4044 12.8039V12.8111Z" fill="black" fill-opacity="0.2"/>
</svg>
