<svg width="16" height="16" viewBox="0 0 16 16" fill="none" xmlns="http://www.w3.org/2000/svg">
<path d="M7.99995 0.150944C6.41785 0.150944 4.87129 0.60741 3.55582 1.46262C2.24036 2.31783 1.21508 3.53337 0.60964 4.95553C0.00419835 6.37769 -0.154213 7.94259 0.154439 9.45235C0.46309 10.9621 1.22494 12.3489 2.34365 13.4374C3.46236 14.5259 4.88768 15.2671 6.43938 15.5674C7.99108 15.8677 9.59945 15.7136 11.0611 15.1245C12.5228 14.5355 13.7721 13.5379 14.651 12.258C15.53 10.9781 15.9992 9.4733 15.9992 7.93396C15.9968 5.87048 15.1533 3.89217 13.6536 2.43307C12.154 0.97397 10.1207 0.153239 7.99995 0.150944ZM7.99995 14.1604C6.73427 14.1604 5.49702 13.7952 4.44465 13.111C3.39228 12.4269 2.57205 11.4544 2.0877 10.3167C1.60335 9.17898 1.47662 7.92705 1.72354 6.71925C1.97046 5.51144 2.57994 4.402 3.47491 3.53122C4.36988 2.66044 5.51014 2.06743 6.75149 1.82719C7.99285 1.58694 9.27955 1.71024 10.4489 2.1815C11.6182 2.65277 12.6177 3.45082 13.3208 4.47475C14.024 5.49868 14.3993 6.70249 14.3993 7.93396C14.3974 9.58473 13.7225 11.1673 12.5228 12.3346C11.3231 13.5019 9.69657 14.1585 7.99995 14.1604ZM9.6783 6.09234L8.79987 6.586V4.04245C8.79987 3.83603 8.71559 3.63807 8.56558 3.49211C8.41556 3.34615 8.2121 3.26415 7.99995 3.26415C7.7878 3.26415 7.58433 3.34615 7.43432 3.49211C7.2843 3.63807 7.20003 3.83603 7.20003 4.04245V7.93396C7.20006 8.07057 7.23704 8.20477 7.30725 8.32307C7.37747 8.44137 7.47844 8.53961 7.60002 8.60793C7.72161 8.67624 7.85953 8.71223 7.99994 8.71226C8.14034 8.7123 8.27829 8.67639 8.39991 8.60813L10.4782 7.44068C10.5693 7.38961 10.6491 7.32158 10.7131 7.24048C10.7771 7.15938 10.8241 7.06681 10.8513 6.96804C10.8786 6.86928 10.8855 6.76626 10.8718 6.66487C10.8581 6.56349 10.8241 6.46572 10.7715 6.37716C10.719 6.2886 10.649 6.21097 10.5656 6.14873C10.4822 6.08648 10.3871 6.04082 10.2856 6.01437C10.184 5.98792 10.0781 5.98119 9.97395 5.99457C9.86976 6.00795 9.76929 6.04117 9.6783 6.09234Z" fill="#335F32"/>
<path d="M7.99995 0.150944C6.41785 0.150944 4.87129 0.60741 3.55582 1.46262C2.24036 2.31783 1.21508 3.53337 0.60964 4.95553C0.00419835 6.37769 -0.154213 7.94259 0.154439 9.45235C0.46309 10.9621 1.22494 12.3489 2.34365 13.4374C3.46236 14.5259 4.88768 15.2671 6.43938 15.5674C7.99108 15.8677 9.59945 15.7136 11.0611 15.1245C12.5228 14.5355 13.7721 13.5379 14.651 12.258C15.53 10.9781 15.9992 9.4733 15.9992 7.93396C15.9968 5.87048 15.1533 3.89217 13.6536 2.43307C12.154 0.97397 10.1207 0.153239 7.99995 0.150944ZM7.99995 14.1604C6.73427 14.1604 5.49702 13.7952 4.44465 13.111C3.39228 12.4269 2.57205 11.4544 2.0877 10.3167C1.60335 9.17898 1.47662 7.92705 1.72354 6.71925C1.97046 5.51144 2.57994 4.402 3.47491 3.53122C4.36988 2.66044 5.51014 2.06743 6.75149 1.82719C7.99285 1.58694 9.27955 1.71024 10.4489 2.1815C11.6182 2.65277 12.6177 3.45082 13.3208 4.47475C14.024 5.49868 14.3993 6.70249 14.3993 7.93396C14.3974 9.58473 13.7225 11.1673 12.5228 12.3346C11.3231 13.5019 9.69657 14.1585 7.99995 14.1604ZM9.6783 6.09234L8.79987 6.586V4.04245C8.79987 3.83603 8.71559 3.63807 8.56558 3.49211C8.41556 3.34615 8.2121 3.26415 7.99995 3.26415C7.7878 3.26415 7.58433 3.34615 7.43432 3.49211C7.2843 3.63807 7.20003 3.83603 7.20003 4.04245V7.93396C7.20006 8.07057 7.23704 8.20477 7.30725 8.32307C7.37747 8.44137 7.47844 8.53961 7.60002 8.60793C7.72161 8.67624 7.85953 8.71223 7.99994 8.71226C8.14034 8.7123 8.27829 8.67639 8.39991 8.60813L10.4782 7.44068C10.5693 7.38961 10.6491 7.32158 10.7131 7.24048C10.7771 7.15938 10.8241 7.06681 10.8513 6.96804C10.8786 6.86928 10.8855 6.76626 10.8718 6.66487C10.8581 6.56349 10.8241 6.46572 10.7715 6.37716C10.719 6.2886 10.649 6.21097 10.5656 6.14873C10.4822 6.08648 10.3871 6.04082 10.2856 6.01437C10.184 5.98792 10.0781 5.98119 9.97395 5.99457C9.86976 6.00795 9.76929 6.04117 9.6783 6.09234Z" fill="black" fill-opacity="0.2"/>
</svg>
