<svg width="19" height="16" viewBox="0 0 19 16" fill="none" xmlns="http://www.w3.org/2000/svg">
<path d="M0.690181 15.717C0.617277 15.7173 0.544812 15.7059 0.475725 15.6833C0.331245 15.6375 0.206221 15.5467 0.119951 15.4248C0.0336813 15.3029 -0.00903854 15.1567 -0.0016143 15.0088C-0.0016143 14.9077 0.710935 5.11521 10.7835 4.34638V0.825947C10.7834 0.691866 10.8242 0.560792 10.9009 0.449468C10.9776 0.338144 11.0865 0.251622 11.2139 0.200953C11.3412 0.150284 11.4811 0.137768 11.6158 0.165004C11.7505 0.192239 11.8738 0.25799 11.9699 0.353859L18.7979 7.15194C18.9247 7.278 18.9957 7.44749 18.9957 7.62402C18.9957 7.80055 18.9247 7.97005 18.7979 8.09611L11.9699 14.8942C11.8738 14.9901 11.7505 15.0558 11.6158 15.083C11.4811 15.1103 11.3412 15.0978 11.2139 15.0471C11.0865 14.9964 10.9776 14.9099 10.9009 14.7986C10.8242 14.6873 10.7834 14.5562 10.7835 14.4221V10.9691C4.05923 11.2186 1.30242 15.3528 1.27475 15.4034C1.21234 15.4995 1.12602 15.5786 1.02381 15.6334C0.921606 15.6882 0.806839 15.717 0.690181 15.717ZM12.1671 2.47826V4.97695C12.1672 5.1518 12.0976 5.31986 11.9731 5.44568C11.8485 5.5715 11.6787 5.64525 11.4995 5.65137C4.98277 5.88404 2.65142 10.116 1.81435 12.8372C3.54384 11.3805 6.62579 9.60005 11.4338 9.60005H11.4649C11.6484 9.60005 11.8243 9.67111 11.9541 9.79758C12.0838 9.92406 12.1567 10.0956 12.1567 10.2745V12.7732L17.3452 7.6274L12.1671 2.47826Z" fill="#335F32"/>
<path d="M0.690181 15.717C0.617277 15.7173 0.544812 15.7059 0.475725 15.6833C0.331245 15.6375 0.206221 15.5467 0.119951 15.4248C0.0336813 15.3029 -0.00903854 15.1567 -0.0016143 15.0088C-0.0016143 14.9077 0.710935 5.11521 10.7835 4.34638V0.825947C10.7834 0.691866 10.8242 0.560792 10.9009 0.449468C10.9776 0.338144 11.0865 0.251622 11.2139 0.200953C11.3412 0.150284 11.4811 0.137768 11.6158 0.165004C11.7505 0.192239 11.8738 0.25799 11.9699 0.353859L18.7979 7.15194C18.9247 7.278 18.9957 7.44749 18.9957 7.62402C18.9957 7.80055 18.9247 7.97005 18.7979 8.09611L11.9699 14.8942C11.8738 14.9901 11.7505 15.0558 11.6158 15.083C11.4811 15.1103 11.3412 15.0978 11.2139 15.0471C11.0865 14.9964 10.9776 14.9099 10.9009 14.7986C10.8242 14.6873 10.7834 14.5562 10.7835 14.4221V10.9691C4.05923 11.2186 1.30242 15.3528 1.27475 15.4034C1.21234 15.4995 1.12602 15.5786 1.02381 15.6334C0.921606 15.6882 0.806839 15.717 0.690181 15.717ZM12.1671 2.47826V4.97695C12.1672 5.1518 12.0976 5.31986 11.9731 5.44568C11.8485 5.5715 11.6787 5.64525 11.4995 5.65137C4.98277 5.88404 2.65142 10.116 1.81435 12.8372C3.54384 11.3805 6.62579 9.60005 11.4338 9.60005H11.4649C11.6484 9.60005 11.8243 9.67111 11.9541 9.79758C12.0838 9.92406 12.1567 10.0956 12.1567 10.2745V12.7732L17.3452 7.6274L12.1671 2.47826Z" fill="black" fill-opacity="0.2"/>
</svg>
